<svg width="24" height="25" viewBox="0 0 24 25" fill="none" xmlns="http://www.w3.org/2000/svg">
<path d="M8.9101 21.1671C8.7201 21.1671 8.5301 21.0971 8.3801 20.9471C8.0901 20.6571 8.0901 20.1771 8.3801 19.8871L14.9001 13.3671C15.3801 12.8871 15.3801 12.1071 14.9001 11.6271L8.3801 5.10709C8.0901 4.81709 8.0901 4.33709 8.3801 4.04709C8.6701 3.75709 9.1501 3.75709 9.4401 4.04709L15.9601 10.5671C16.4701 11.0771 16.7601 11.7671 16.7601 12.4971C16.7601 13.2271 16.4801 13.9171 15.9601 14.4271L9.4401 20.9471C9.2901 21.0871 9.1001 21.1671 8.9101 21.1671Z" fill="#111111"/>
</svg>
