<svg width="192" height="32" viewBox="0 0 192 32" fill="none" xmlns="http://www.w3.org/2000/svg">
<path d="M14.5734 4.39057C15.0224 3.00861 16.9776 3.00861 17.4266 4.39058L19.2555 10.0193C19.4563 10.6373 20.0322 11.0557 20.682 11.0557H26.6004C28.0535 11.0557 28.6576 12.9152 27.4821 13.7693L22.694 17.248C22.1683 17.6299 21.9483 18.307 22.1491 18.925L23.978 24.5537C24.427 25.9357 22.8453 27.0848 21.6697 26.2307L16.8817 22.752C16.3559 22.3701 15.6441 22.3701 15.1183 22.752L10.3303 26.2307C9.15471 27.0849 7.57299 25.9357 8.02202 24.5537L9.85089 18.925C10.0517 18.307 9.83171 17.6299 9.30598 17.248L4.51794 13.7693C3.34237 12.9151 3.94654 11.0557 5.39962 11.0557H11.318C11.9678 11.0557 12.5437 10.6373 12.7445 10.0193L14.5734 4.39057Z" fill="#254CA9"/>
<path d="M54.5734 4.39057C55.0224 3.00861 56.9776 3.00861 57.4266 4.39058L59.2555 10.0193C59.4563 10.6373 60.0322 11.0557 60.682 11.0557H66.6004C68.0535 11.0557 68.6576 12.9152 67.4821 13.7693L62.694 17.248C62.1683 17.6299 61.9483 18.307 62.1491 18.925L63.978 24.5537C64.427 25.9357 62.8453 27.0848 61.6697 26.2307L56.8817 22.752C56.3559 22.3701 55.6441 22.3701 55.1183 22.752L50.3303 26.2307C49.1547 27.0849 47.573 25.9357 48.022 24.5537L49.8509 18.925C50.0517 18.307 49.8317 17.6299 49.306 17.248L44.5179 13.7693C43.3424 12.9151 43.9465 11.0557 45.3996 11.0557H51.318C51.9678 11.0557 52.5437 10.6373 52.7445 10.0193L54.5734 4.39057Z" fill="#254CA9"/>
<path d="M94.5734 4.39057C95.0224 3.00861 96.9776 3.00861 97.4266 4.39058L99.2555 10.0193C99.4563 10.6373 100.032 11.0557 100.682 11.0557H106.6C108.053 11.0557 108.658 12.9152 107.482 13.7693L102.694 17.248C102.168 17.6299 101.948 18.307 102.149 18.925L103.978 24.5537C104.427 25.9357 102.845 27.0848 101.67 26.2307L96.8817 22.752C96.3559 22.3701 95.6441 22.3701 95.1183 22.752L90.3303 26.2307C89.1547 27.0849 87.573 25.9357 88.022 24.5537L89.8509 18.925C90.0517 18.307 89.8317 17.6299 89.306 17.248L84.5179 13.7693C83.3424 12.9151 83.9465 11.0557 85.3996 11.0557H91.318C91.9678 11.0557 92.5437 10.6373 92.7445 10.0193L94.5734 4.39057Z" fill="#254CA9"/>
<path d="M134.573 4.39057C135.022 3.00861 136.978 3.00861 137.427 4.39058L139.255 10.0193C139.456 10.6373 140.032 11.0557 140.682 11.0557H146.6C148.053 11.0557 148.658 12.9152 147.482 13.7693L142.694 17.248C142.168 17.6299 141.948 18.307 142.149 18.925L143.978 24.5537C144.427 25.9357 142.845 27.0848 141.67 26.2307L136.882 22.752C136.356 22.3701 135.644 22.3701 135.118 22.752L130.33 26.2307C129.155 27.0849 127.573 25.9357 128.022 24.5537L129.851 18.925C130.052 18.307 129.832 17.6299 129.306 17.248L124.518 13.7693C123.342 12.9151 123.947 11.0557 125.4 11.0557H131.318C131.968 11.0557 132.544 10.6373 132.745 10.0193L134.573 4.39057Z" fill="#DDDDDD"/>
<mask id="mask0_449_961" style="mask-type:alpha" maskUnits="userSpaceOnUse" x="123" y="3" width="26" height="24">
<path d="M134.573 4.39057C135.022 3.00861 136.978 3.00861 137.427 4.39058L139.255 10.0193C139.456 10.6373 140.032 11.0557 140.682 11.0557H146.6C148.053 11.0557 148.658 12.9152 147.482 13.7693L142.694 17.248C142.168 17.6299 141.948 18.307 142.149 18.925L143.978 24.5537C144.427 25.9357 142.845 27.0848 141.67 26.2307L136.882 22.752C136.356 22.3701 135.644 22.3701 135.118 22.752L130.33 26.2307C129.155 27.0849 127.573 25.9357 128.022 24.5537L129.851 18.925C130.052 18.307 129.832 17.6299 129.306 17.248L124.518 13.7693C123.342 12.9151 123.947 11.0557 125.4 11.0557H131.318C131.968 11.0557 132.544 10.6373 132.745 10.0193L134.573 4.39057Z" fill="#DDDDDD"/>
</mask>
<g mask="url(#mask0_449_961)">
<rect x="120" width="18" height="32" fill="#254CA9"/>
</g>
<path d="M174.573 4.39057C175.022 3.00861 176.978 3.00861 177.427 4.39058L179.255 10.0193C179.456 10.6373 180.032 11.0557 180.682 11.0557H186.6C188.053 11.0557 188.658 12.9152 187.482 13.7693L182.694 17.248C182.168 17.6299 181.948 18.307 182.149 18.925L183.978 24.5537C184.427 25.9357 182.845 27.0848 181.67 26.2307L176.882 22.752C176.356 22.3701 175.644 22.3701 175.118 22.752L170.33 26.2307C169.155 27.0849 167.573 25.9357 168.022 24.5537L169.851 18.925C170.052 18.307 169.832 17.6299 169.306 17.248L164.518 13.7693C163.342 12.9151 163.947 11.0557 165.4 11.0557H171.318C171.968 11.0557 172.544 10.6373 172.745 10.0193L174.573 4.39057Z" fill="#DDDDDD"/>
</svg>
